<?xml version="1.0" standalone="no"?><!DOCTYPE svg PUBLIC "-//W3C//DTD SVG 1.1//EN" "http://www.w3.org/Graphics/SVG/1.1/DTD/svg11.dtd"><svg t="1726380185979" class="icon" viewBox="0 0 1025 1024" version="1.1" xmlns="http://www.w3.org/2000/svg" p-id="1559" xmlns:xlink="http://www.w3.org/1999/xlink" width="200.1953125" height="200"><path d="M818.422854 446.712393c-38.144515 4.443744-77.221769-1.470387-111.859351-17.082551-28.303923-13.217187-67.568539-38.160808-89.758749-94.072154-10.300852-26.992387-16.870751-55.080436-18.235237-83.901642-2.859311-34.771994-11.636826-94.218786-52.103005-104.161205-1.735138 0.28919-4.871419 0.904227-10.455629 2.289078-30.939214 7.726657-47.349705 16.31681-58.546638 28.723452-13.595984 14.976763-26.682832 45.333524-14.769035 101.949515 11.836408 58.28596 39.838922 110.038678 75.071176 157.636843 12.268156 16.805581 4.39894 40.804245-15.359634 54.481691-19.856328 13.648934-45.45979 12.993166-59.430498-2.19947C417.394271 439.784062 377.860831 384.174125 355.743936 318.976126c-39.818556-107.623334 8.451668-202.204625 161.962467-241.892842 23.778716-5.893765 52.665092-10.805916 82.329427-6.598411 1.445948 0.240312 2.895969 0.480625 4.329698 0.729084 109.032625 23.273653 110.23826 111.020294 107.892159 169.872413l-0.048877 0.794253c-1.893988 23.208483 0.50099 46.335505 6.195174 68.827125 6.757261 25.766386 21.216741 44.27452 41.484451 54.37579 16.573415 8.227648 34.328027 9.608426 45.81415 8.223575 60.737962-7.189009 91.844172-56.611919 86.109257-104.894362-2.969285-20.552827 20.634289-38.083419 53.638561-36.82076 33.008345 1.226001 60.391749 20.996794 60.399895 41.728837-2.350175 99.778557-90.007207 161.237457-187.427444 173.391565z" fill="#5CC1FF" p-id="1560"></path><path d="M282.570822 542.548197c-43.793895 0-79.425312 35.631417-79.425312 79.425312s35.631417 79.425312 79.425312 79.425312 79.425312-35.631417 79.425312-79.425312-35.631417-79.425312-79.425312-79.425312z" fill="#5CC1FF" p-id="1561"></path><path d="M886.231705 654.207966c-16.463442-55.605865-55.088582-101.399648-110.91032-127.434858a39.623048 39.623048 0 0 0-7.388591-4.158628 3070.02455 3070.02455 0 0 0-149.82465-59.874466 3176.096036 3176.096036 0 0 0-206.489519-68.28133 47.32934 47.32934 0 0 0-12.003405-1.845111c-0.847203-0.252532-1.68626-0.509137-2.525318-0.745376-64.749958-18.748447-139.568602-10.924035-207.316356 22.524204-67.784412 33.350485-119.659324 87.974734-144.334121 150.802193-24.605554 62.297956-21.505931 130.448947 5.730841 186.677995 29.464754 60.82757 81.099353 99.990358 143.22624 113.329737 60.428407 12.883193 123.67132 4.920296 180.983811-22.344988 1.902134-0.757595 11.644973-4.366356 22.271672-3.987558 8.565714 0.28919 18.414453 2.720826 26.788732 18.056021 26.853902 51.508333 72.997971 89.506217 128.257624 109.313668 51.023635 18.18636 108.071375 15.86877 163.241418-5.950789 63.727612-25.330565 119.190918-74.134364 150.7859-133.316404 28.540162-53.870727 36.584521-115.040437 19.506042-172.76431zM375.616556 842.747365c0.256605-0.122193 0.505064-0.252532 0.765742-0.382871 0.228093-0.101827 0.452113-0.228093 0.680206-0.333994-0.012219 0-0.488771 0.285117-1.445948 0.716865z m-93.045734-80.25215c-77.482447 0-140.521706-63.039259-140.521706-140.521706s63.039259-140.521706 140.521706-140.521706 140.521706 63.039259 140.521706 140.521706-63.039259 140.521706-140.521706 140.521706z m359.45045 99.790777c-73.674105 0-133.393793-59.719688-133.393793-133.393794s59.719688-133.393793 133.393793-133.393793 133.393793 59.719688 133.393794 133.393793-59.719688 133.393793-133.393794 133.393794z" fill="#5CC1FF" p-id="1562"></path></svg>