<?xml version="1.0" standalone="no"?><!DOCTYPE svg PUBLIC "-//W3C//DTD SVG 1.1//EN" "http://www.w3.org/Graphics/SVG/1.1/DTD/svg11.dtd"><svg t="1726380162454" class="icon" viewBox="0 0 1187 1024" version="1.1" xmlns="http://www.w3.org/2000/svg" p-id="1250" xmlns:xlink="http://www.w3.org/1999/xlink" width="231.8359375" height="200"><path d="M1167.743391 286.203444c-36.875858-158.830907-122.078174-210.050796-186.112506-223.978098l-0.852402-0.179951c-125.795594-25.94617-255.843726-39.186814-385.011044-39.158401-129.157846 0-259.21545 13.264322-385.001572 39.238905l-0.852402 0.184688c-54.212768 11.895744-101.128027 44.4575-134.977858 93.669509C42.061303 203.752493 28.673856 255.403319 23.114301 290.238147c-21.651011 135.446679-5.39381 325.584417 36.165523 484.803641 12.511367 47.938142 35.852975 93.622154 65.379234 128.854769 36.871122 43.946059 81.825857 70.616771 130.715847 77.469136a2730.726651 2730.726651 0 0 0 340.515659 21.423704 2730.712444 2730.712444 0 0 0 339.743761-21.404762l0.776633-0.104182c85.647459-12.052017 154.289499-83.203907 194.811743-202.22764l1.396992-4.740303c34.366008-138.785253 67.150336-349.674245 35.123698-488.109066z m-406.183762 303.308312c-64.673634 48.108622-127.566696 100.379807-184.597125 146.897279-17.772582 14.500305-36.795353 21.120627-55.889158 19.254814-48.274367-5.412753-79.604876-53.777095-83.601695-95.914168-8.462458-96.387725-10.858654-192.903309-6.426164-289.575168 2.102592-42.539596 33.688821-92.935496 86.168372-99.461107 19.752049-2.192567 39.759818 3.608502 58.380066 16.863353 60.165375 42.752696 123.754564 92.518767 186.775486 140.589504 28.593352 21.911467 45.234133 51.352485 44.902644 81.451747-0.260456 30.113469-17.403208 58.702085-45.712426 79.893746z" fill="#FF5C6C" p-id="1251"></path></svg>