<?xml version="1.0" standalone="no"?><!DOCTYPE svg PUBLIC "-//W3C//DTD SVG 1.1//EN" "http://www.w3.org/Graphics/SVG/1.1/DTD/svg11.dtd"><svg t="1726380173542" class="icon" viewBox="0 0 1024 1024" version="1.1" xmlns="http://www.w3.org/2000/svg" p-id="1403" xmlns:xlink="http://www.w3.org/1999/xlink" width="200" height="200"><path d="M915.447905 625.906846c-21.058783 120.022514-80.649107 209.329075-173.335273 264.60079-91.455747 55.267668-216.015431 76.508585-338.510924 60.537423-123.555921-17.270387-213.781249-75.298403-267.174957-169.429502-53.587984-92.714498-70.344348-221.540174-51.394277-347.516458C113.044743 247.68253 231.1083 133.379036 413.87004 113.558767c27.352538-3.258182 54.227478 14.526229 59.578181 40.118134 5.383083 25.575715-12.012775 49.641739-38.478925 53.446324-137.653123 18.379383-233.593423 111.636237-257.768727 251.503305-33.427731 194.26049 62.812079 373.039557 249.912664 399.024063 189.241676 29.076743 364.628996-71.659763 395.887305-253.858909 14.012206-73.327304 6.718735-148.674277-22.564427-215.031905-10.418087-23.41034 0.910672-51.973059 25.421913-64.40272 24.535526-12.41347 52.446609-3.897676 62.257581 19.747415 35.69834 85.967431 44.064379 185.688032 27.3323 281.802372z" fill="#FF5C6C" p-id="1404"></path><path d="M767.54264 83.798008c-20.079304-33.116079-54.000822-41.619731-74.331067-21.746846a1388.309249 1388.309249 0 0 1-122.042182 104.221344c-16.80898 12.874877-24.195542 36.386403-19.508616 59.821028a923.66419 923.66419 0 0 1 18.007019 165.879905c-14.076964-4.966198-29.064601-7.346087-44.529834-6.985866-79.402498 4.063621-140.846545 66.256443-152.179351 137.653123-10.389755 71.501913 29.789091 147.702893 104.771794 172.376031 70.194593 22.916553 154.033075-26.753518 176.593455-117.424063a72.623051 72.623051 0 0 0 4.209328-15.461186 1012.080316 1012.080316 0 0 0-0.445218-310.441992 1449.765439 1449.765439 0 0 0 103.112348-73.922277c22.880126-17.610372 26.44996-60.921929 6.342324-93.969201z" fill="#FF5C6C" p-id="1405"></path></svg>