<?xml version="1.0" standalone="no"?><!DOCTYPE svg PUBLIC "-//W3C//DTD SVG 1.1//EN" "http://www.w3.org/Graphics/SVG/1.1/DTD/svg11.dtd"><svg t="1727024836879" class="icon" viewBox="0 0 1024 1024" version="1.1" xmlns="http://www.w3.org/2000/svg" p-id="18203" xmlns:xlink="http://www.w3.org/1999/xlink" width="200" height="200"><path d="M515.5 511.5m-434.5 0a434.5 434.5 0 1 0 869 0 434.5 434.5 0 1 0-869 0Z" fill="#63D13F" p-id="18204"></path><path d="M758.81 415a162.64 162.64 0 0 0-149.17-149.14Q561.29 262 512.78 262t-96.85 3.86A162.64 162.64 0 0 0 266.75 415q-3.86 48.34-3.86 96.85t3.86 96.86a162.64 162.64 0 0 0 149.18 149.21q48.49 3.89 97.14 3.87 48.33 0 96.57-3.87a162.64 162.64 0 0 0 149.17-149.17q3.87-48.35 3.87-96.86T758.81 415zM437.18 633.53a43.67 43.67 0 1 1 43.66-43.67 43.67 43.67 0 0 1-43.66 43.67z m112.41 6.15a24.42 24.42 0 0 1-24.42-24.42 113.53 113.53 0 0 0-113.4-113.4 24.42 24.42 0 1 1 0-48.83A162.23 162.23 0 0 1 574 615.26a24.41 24.41 0 0 1-24.41 24.42z m83.33-2.21a24.41 24.41 0 0 1-24.41-24.41A194.52 194.52 0 0 0 414 418.53a24.42 24.42 0 0 1 0-48.84 243.2 243.2 0 0 1 243.34 243.37 24.41 24.41 0 0 1-24.42 24.41z" fill="#FFFFFF" p-id="18205"></path></svg>